<svg height="512pt" viewBox="-131 0 512 512.00219" width="512pt" xmlns="http://www.w3.org/2000/svg"><path d="m242.929688 386.765625c0 58.039063-42.011719 106.273437-97.296876 115.925781-6.335937 1.113282-12.84375 1.714844-19.488281 1.765625-65.097656.492188-118.613281-52.59375-118.613281-117.691406 0-46.992187 27.539062-87.554687 67.363281-106.421875 2.671875-1.265625 4.398438-3.9375 4.398438-6.898438v-263.617187c0-1.265625 1.035156-2.296875 2.300781-2.296875h87.273438c1.265624 0 2.300781 1.03125 2.300781 2.296875v263.617187c0 2.960938 1.714843 5.632813 4.386719 6.898438 39.824218 18.855469 67.375 59.421875 67.375 106.421875zm0 0" fill="#a6e0ec"/><path d="m242.929688 386.765625c0 58.039063-42.011719 106.273437-97.296876 115.925781-55.132812-9.671875-97.4375-58.046875-97.4375-115.925781 0-46.992187 27.542969-87.554687 67.355469-106.421875 2.679688-1.265625 4.40625-3.9375 4.40625-6.898438v-263.617187c0-1.265625 1.035157-2.296875 2.300781-2.296875h46.609376c1.265624 0 2.300781 1.03125 2.300781 2.296875v263.617187c0 2.960938 1.714843 5.632813 4.386719 6.898438 39.824218 18.855469 67.375 59.421875 67.375 106.421875zm0 0" fill="#c2eaf2"/><path d="m242.664062 397.765625c-4.109374-.636719-7.964843 2.160156-8.609374 6.269531-8.40625 53.417969-53.8125 92.484375-107.984376 92.894532l-.828124.003906c-60.753907 0-110.179688-49.421875-110.179688-110.167969 0-42.363281 24.75-81.464844 63.054688-99.617187 5.292968-2.507813 8.710937-7.886719 8.710937-13.703126v-49.394531c0-4.160156-3.371094-7.53125-7.53125-7.53125s-7.53125 3.371094-7.53125 7.53125c-.027344 53.082031.074219 49.40625-.097656 49.492188-42.824219 20.289062-71.667969 63.71875-71.667969 113.222656 0 106.871094 126.695312 164.625 207.324219 94.570313 22.269531-19.347657 37.046875-45.96875 41.609375-74.957032.644531-4.113281-2.160156-7.964844-6.269532-8.613281zm0 0"/><path d="m79.296875 201.457031c4.15625 0 7.53125-3.371093 7.53125-7.53125v-178.863281h76.804687v35.644531h-38.402343c-4.160157 0-7.53125 3.371094-7.53125 7.53125 0 4.160157 3.371093 7.527344 7.53125 7.527344h38.402343v35.144531h-38.402343c-4.160157 0-7.53125 3.371094-7.53125 7.53125s3.371093 7.53125 7.53125 7.53125h38.402343v35.144532h-38.402343c-4.160157 0-7.53125 3.367187-7.53125 7.527343 0 4.160157 3.371093 7.53125 7.53125 7.53125h38.402343v35.144531h-38.402343c-4.160157 0-7.53125 3.371094-7.53125 7.53125 0 4.160157 3.371093 7.53125 7.53125 7.53125h38.402343v57.066407c0 5.816406 3.414063 11.191406 8.699219 13.695312 34.839844 16.503907 58.804688 50.519531 62.539063 88.769531.378906 3.890626 3.660156 6.800782 7.488281 6.800782 4.464844 0 7.933594-3.84375 7.503906-8.265625-4.25-43.488281-31.484375-82.160157-71.082031-100.917969-.058594-.027344-.085938-.066406-.085938-.082031v-263.617188c0-5.421875-4.410156-9.832031-9.828124-9.832031h-87.273438c-5.417969 0-9.828125 4.410156-9.828125 9.832031v184.09375c0 4.160157 3.371094 7.53125 7.53125 7.53125zm0 0"/><path d="m214.089844 386.542969c0-4.160157-3.371094-7.53125-7.53125-7.53125h-35.835938l21.855469-26.261719c2.660156-3.199219 2.226563-7.945312-.972656-10.605469-3.195313-2.664062-7.945313-2.226562-10.605469.96875l-29.875 35.898438h-18.363281v-18.367188l35.898437-29.871093c3.195313-2.660157 3.628906-7.40625.96875-10.605469-2.660156-3.195313-7.40625-3.632813-10.605468-.972657l-26.261719 21.855469v-95.050781c0-4.160156-3.371094-7.527344-7.53125-7.527344-4.160157 0-7.53125 3.367188-7.53125 7.527344v95.050781l-26.261719-21.855469c-3.199219-2.660156-7.945312-2.226562-10.609375.972657-2.65625 3.199219-2.222656 7.945312.972656 10.605469l35.898438 29.871093v18.367188h-18.367188l-29.871093-35.898438c-2.660157-3.195312-7.410157-3.628906-10.605469-.96875-3.199219 2.660157-3.632813 7.40625-.972657 10.605469l21.855469 26.261719h-35.835937c-4.160156 0-7.53125 3.371093-7.53125 7.53125 0 4.160156 3.371094 7.53125 7.53125 7.53125h35.835937l-21.855469 26.261719c-4.117187 4.945312-.503906 12.347656 5.785157 12.347656 2.15625 0 4.300781-.921875 5.792969-2.710938l29.871093-35.898437h18.367188v18.367187l-35.898438 29.871094c-3.195312 2.660156-3.632812 7.410156-.972656 10.605469 2.652344 3.1875 7.398437 3.640625 10.605469.972656l26.265625-21.855469v35.835938c0 4.160156 3.371093 7.53125 7.53125 7.53125 4.15625 0 7.527343-3.371094 7.527343-7.53125v-35.835938c26.523438 21.300782 26.28125 23.597656 31.078126 23.597656 7.035156 0 10.207031-8.835937 4.820312-13.320312l-35.898438-29.871094v-18.367187h18.367188l29.871094 35.898437c2.652344 3.1875 7.398437 3.640625 10.609375.96875 3.195312-2.65625 3.628906-7.40625.96875-10.605468l-21.855469-26.261719h35.839844c4.160156 0 7.53125-3.371094 7.53125-7.53125zm0 0"/></svg>